<svg width="18" height="18" viewBox="0 0 18 18" fill="none" xmlns="http://www.w3.org/2000/svg">
<path d="M8.16667 13.1667H9.83334V9.83333H13.1667V8.16667H9.83334V4.83333H8.16667V8.16667H4.83334V9.83333H8.16667V13.1667ZM9.00001 17.3333C7.84723 17.3333 6.76389 17.1181 5.75001 16.6875C4.73612 16.2431 3.85417 15.6458 3.10417 14.8958C2.35417 14.1458 1.75695 13.2639 1.31251 12.25C0.88195 11.2361 0.666672 10.1528 0.666672 9C0.666672 7.84722 0.88195 6.76389 1.31251 5.75C1.75695 4.73611 2.35417 3.85417 3.10417 3.10417C3.85417 2.35417 4.73612 1.76389 5.75001 1.33333C6.76389 0.888888 7.84723 0.666666 9.00001 0.666666C10.1528 0.666666 11.2361 0.888888 12.25 1.33333C13.2639 1.76389 14.1458 2.35417 14.8958 3.10417C15.6458 3.85417 16.2361 4.73611 16.6667 5.75C17.1111 6.76389 17.3333 7.84722 17.3333 9C17.3333 10.1528 17.1111 11.2361 16.6667 12.25C16.2361 13.2639 15.6458 14.1458 14.8958 14.8958C14.1458 15.6458 13.2639 16.2431 12.25 16.6875C11.2361 17.1181 10.1528 17.3333 9.00001 17.3333ZM9.00001 15.6667C10.8611 15.6667 12.4375 15.0208 13.7292 13.7292C15.0208 12.4375 15.6667 10.8611 15.6667 9C15.6667 7.13889 15.0208 5.5625 13.7292 4.27083C12.4375 2.97917 10.8611 2.33333 9.00001 2.33333C7.13889 2.33333 5.56251 2.97917 4.27084 4.27083C2.97917 5.5625 2.33334 7.13889 2.33334 9C2.33334 10.8611 2.97917 12.4375 4.27084 13.7292C5.56251 15.0208 7.13889 15.6667 9.00001 15.6667Z" fill="#FFEBEB"/>
</svg>
