<svg width="23" height="21" viewBox="0 0 23 21" fill="none" xmlns="http://www.w3.org/2000/svg">
<path d="M11.925 5.10494C11.925 4.05062 11.5062 3.03949 10.7607 2.29397C10.0153 1.54846 9.00423 1.12963 7.95 1.12963H1.9875V16.037H8.94375C9.73443 16.037 10.4927 16.3512 11.0518 16.9103C11.6109 17.4694 11.925 18.2278 11.925 19.0185M11.925 5.10494V19.0185M11.925 5.10494C11.925 4.05062 12.3438 3.03949 13.0892 2.29397C13.8347 1.54846 14.8458 1.12963 15.9 1.12963H21.8625V16.037H14.9062C14.1156 16.037 13.3573 16.3512 12.7982 16.9103C12.2391 17.4694 11.925 18.2278 11.925 19.0185" stroke="white" stroke-width="2" stroke-linecap="round" stroke-linejoin="round"/>
</svg>
