<svg width="16" height="16" viewBox="0 0 16 16" fill="none" xmlns="http://www.w3.org/2000/svg">
<path d="M6.60002 12.6667C5.52224 12.6667 4.59724 12.3167 3.82502 11.6167C3.0528 10.9167 2.66669 10.0445 2.66669 9.00008C2.66669 7.95564 3.0528 7.08342 3.82502 6.38342C4.59724 5.68341 5.52224 5.33341 6.60002 5.33341H10.8L9.06669 3.60008L10 2.66675L13.3334 6.00008L10 9.33341L9.06669 8.40008L10.8 6.66675H6.60002C5.90002 6.66675 5.29169 6.88897 4.77502 7.33341C4.25835 7.77786 4.00002 8.33341 4.00002 9.00008C4.00002 9.66675 4.25835 10.2223 4.77502 10.6667C5.29169 11.1112 5.90002 11.3334 6.60002 11.3334H11.3334V12.6667H6.60002Z" fill="#1D1B20"/>
</svg>
