<svg width="28" height="26" viewBox="0 0 28 26" fill="none" xmlns="http://www.w3.org/2000/svg">
<path d="M22 22V20C22 18.9391 21.5786 17.9217 20.8284 17.1716C20.0783 16.4214 19.0609 16 18 16H10C8.93913 16 7.92172 16.4214 7.17157 17.1716C6.42143 17.9217 6 18.9391 6 20V22M18 8C18 10.2091 16.2091 12 14 12C11.7909 12 10 10.2091 10 8C10 5.79086 11.7909 4 14 4C16.2091 4 18 5.79086 18 8Z" stroke="black" stroke-width="2.5" stroke-linecap="round" stroke-linejoin="round"/>
<rect x="0.5" y="0.5" width="27" height="25" rx="1.5" stroke="black"/>
</svg>
