<svg width="14" height="14" viewBox="0 0 14 14" fill="none" xmlns="http://www.w3.org/2000/svg">
<path d="M1.5 11.3958C2.27778 10.7569 3.13889 10.2812 4.08333 9.96875C5.02778 9.65625 6 9.5 7 9.5C8 9.5 8.97222 9.65278 9.91667 9.95833C10.8611 10.2639 11.7222 10.7431 12.5 11.3958V1.5H1.5V11.3958ZM9.125 7.62C9.70833 7.03333 10 6.325 10 5.495C10 4.665 9.70667 3.95833 9.12 3.375C8.53333 2.79167 7.825 2.5 6.995 2.5C6.165 2.5 5.45833 2.79333 4.875 3.38C4.29167 3.96667 4 4.675 4 5.505C4 6.335 4.29333 7.04167 4.88 7.625C5.46667 8.20833 6.175 8.5 7.005 8.5C7.835 8.5 8.54167 8.20667 9.125 7.62ZM1.5 14C1.0875 14 0.734375 13.8531 0.440625 13.5594C0.146875 13.2656 0 12.9125 0 12.5V1.5C0 1.0875 0.146875 0.734376 0.440625 0.440626C0.734375 0.146876 1.0875 0 1.5 0H12.5C12.9125 0 13.2656 0.146876 13.5594 0.440626C13.8531 0.734376 14 1.0875 14 1.5V12.5C14 12.9125 13.8531 13.2656 13.5594 13.5594C13.2656 13.8531 12.9125 14 12.5 14H1.5ZM2.52083 12.5H11.4792C10.8403 12.0139 10.1389 11.6424 9.375 11.3854C8.61111 11.1285 7.81944 11 7 11C6.18056 11 5.39236 11.1285 4.63542 11.3854C3.87847 11.6424 3.17361 12.0139 2.52083 12.5ZM5.9375 6.5625C5.64583 6.27083 5.5 5.91667 5.5 5.5C5.5 5.08333 5.64583 4.72917 5.9375 4.4375C6.22917 4.14583 6.58333 4 7 4C7.41667 4 7.77083 4.14583 8.0625 4.4375C8.35417 4.72917 8.5 5.08333 8.5 5.5C8.5 5.91667 8.35417 6.27083 8.0625 6.5625C7.77083 6.85417 7.41667 7 7 7C6.58333 7 6.22917 6.85417 5.9375 6.5625Z" fill="black"/>
</svg>
