<svg width="16" height="16" viewBox="0 0 16 16" fill="none" xmlns="http://www.w3.org/2000/svg">
<path d="M7.19999 12.0001H8.80001V8.79998H12V7.20002H8.80001V4H7.19999V7.20002H3.99999V8.79998H7.19999V12.0001ZM7.99999 16C6.89332 16 5.85333 15.7934 4.88 15.38C3.90666 14.9534 3.05999 14.38 2.34 13.66C1.62 12.94 1.04667 12.0934 0.620005 11.12C0.206668 10.1467 0 9.1067 0 8.00001C0 6.89334 0.206668 5.85334 0.620005 4.88001C1.04667 3.90667 1.62 3.06001 2.34 2.34001C3.05999 1.62 3.90666 1.05333 4.88 0.639995C5.85333 0.213332 6.89332 0 7.99999 0C9.10664 0 10.1466 0.213332 11.1199 0.639995C12.0933 1.05333 12.94 1.62 13.66 2.34001C14.38 3.06001 14.9466 3.90667 15.36 4.88001C15.7866 5.85334 16 6.89334 16 8.00001C16 9.1067 15.7866 10.1467 15.36 11.12C14.9466 12.0934 14.38 12.94 13.66 13.66C12.94 14.38 12.0933 14.9534 11.1199 15.38C10.1466 15.7934 9.10664 16 7.99999 16ZM7.99999 14.4001C9.7866 14.4001 11.2999 13.78 12.54 12.5401C13.78 11.3 14.4 9.78667 14.4 8.00001C14.4 6.21335 13.78 4.70001 12.54 3.46C11.2999 2.22001 9.7866 1.6 7.99999 1.6C6.21333 1.6 4.7 2.22001 3.46 3.46C2.22 4.70001 1.6 6.21335 1.6 8.00001C1.6 9.78667 2.22 11.3 3.46 12.5401C4.7 13.78 6.21333 14.4001 7.99999 14.4001Z" fill="white"/>
</svg>
