<svg width="14" height="14" viewBox="0 0 14 14" fill="none" xmlns="http://www.w3.org/2000/svg">
<path d="M1.5 14C1.0875 14 0.734375 13.8507 0.440625 13.5521C0.146875 13.2535 0 12.9028 0 12.5V1.5C0 1.09722 0.146875 0.746528 0.440625 0.447917C0.734375 0.149306 1.0875 0 1.5 0H12.5C12.9125 0 13.2656 0.149306 13.5594 0.447917C13.8531 0.746528 14 1.09722 14 1.5V12.5C14 12.9028 13.8531 13.2535 13.5594 13.5521C13.2656 13.8507 12.9125 14 12.5 14H1.5ZM1.5 12.5H12.5V1.5H1.5V12.5ZM2.5 11H11.5L8.5 7L6.25 10L4.75 8L2.5 11Z" fill="black"/>
</svg>
