<svg width="22" height="21" viewBox="0 0 22 21" fill="none" xmlns="http://www.w3.org/2000/svg">
<path d="M10.9885 5.12254C10.9885 4.02918 10.5675 2.98059 9.81824 2.20746C9.06896 1.43434 8.05272 1 6.99308 1H1V16.4595H7.99192C8.78665 16.4595 9.54884 16.7853 10.1108 17.3651C10.6728 17.945 10.9885 18.7314 10.9885 19.5514M10.9885 5.12254V19.5514M10.9885 5.12254C10.9885 4.02918 11.4094 2.98059 12.1587 2.20746C12.908 1.43434 13.9242 1 14.9838 1H20.9769V16.4595H13.985C13.1903 16.4595 12.4281 16.7853 11.8661 17.3651C11.3042 17.945 10.9885 18.7314 10.9885 19.5514" stroke="white" stroke-width="2" stroke-linecap="round" stroke-linejoin="round"/>
</svg>
