<svg width="12" height="8" viewBox="0 0 12 8" fill="none" xmlns="http://www.w3.org/2000/svg">
<path d="M0.9375 8L2.47917 5.3125C1.82639 5.3125 1.25 5.0534 0.75 4.53521C0.25 4.01715 0 3.39431 0 2.66667C0 1.91667 0.256944 1.28472 0.770833 0.770833C1.28472 0.256944 1.91667 0 2.66667 0C3.41667 0 4.04861 0.256944 4.5625 0.770833C5.07639 1.28472 5.33333 1.91667 5.33333 2.66667C5.33333 2.875 5.30208 3.08681 5.23958 3.30208C5.17708 3.51736 5.08333 3.74306 4.95833 3.97917L2.66667 8H0.9375ZM6.9375 8L8.47917 5.3125C7.82639 5.3125 7.25 5.0534 6.75 4.53521C6.25 4.01715 6 3.39431 6 2.66667C6 1.91667 6.25694 1.28472 6.77083 0.770833C7.28472 0.256944 7.91667 0 8.66667 0C9.41667 0 10.0486 0.256944 10.5625 0.770833C11.0764 1.28472 11.3333 1.91667 11.3333 2.66667C11.3333 2.90278 11.3021 3.13194 11.2396 3.35417C11.1771 3.57639 11.0903 3.78472 10.9792 3.97917L8.66667 8H6.9375ZM3.48958 3.49458C3.71875 3.26861 3.83333 2.99431 3.83333 2.67167C3.83333 2.34889 3.72042 2.07292 3.49458 1.84375C3.26861 1.61458 2.99431 1.5 2.67167 1.5C2.34889 1.5 2.07292 1.61292 1.84375 1.83875C1.61458 2.06472 1.5 2.33903 1.5 2.66167C1.5 2.98444 1.61292 3.26042 1.83875 3.48958C2.06472 3.71875 2.33903 3.83333 2.66167 3.83333C2.98444 3.83333 3.26042 3.72042 3.48958 3.49458ZM9.48958 3.49458C9.71875 3.26861 9.83333 2.99431 9.83333 2.67167C9.83333 2.34889 9.72042 2.07292 9.49458 1.84375C9.26861 1.61458 8.99431 1.5 8.67167 1.5C8.34889 1.5 8.07292 1.61292 7.84375 1.83875C7.61458 2.06472 7.5 2.33903 7.5 2.66167C7.5 2.98444 7.61292 3.26042 7.83875 3.48958C8.06472 3.71875 8.33903 3.83333 8.66167 3.83333C8.98444 3.83333 9.26042 3.72042 9.48958 3.49458Z" fill="black"/>
</svg>
