<svg width="17" height="17" viewBox="0 0 17 17" fill="none" xmlns="http://www.w3.org/2000/svg">
<path d="M15.525 16.8L9.55 10.825C9.05 11.1917 8.50175 11.4792 7.90525 11.6875C7.30875 11.8958 6.67392 12 6.00075 12C4.33358 12 2.91667 11.4167 1.75 10.25C0.583333 9.08333 0 7.66667 0 6C0 4.33333 0.583333 2.91667 1.75 1.75C2.91667 0.583333 4.33333 0 6 0C7.66667 0 9.08333 0.583333 10.25 1.75C11.4167 2.91667 12 4.33358 12 6.00075C12 6.67392 11.8958 7.30875 11.6875 7.90525C11.4792 8.50175 11.1917 9.05 10.825 9.55L16.8 15.525L15.525 16.8ZM6 10.2C7.16667 10.2 8.15833 9.79167 8.975 8.975C9.79167 8.15833 10.2 7.16667 10.2 6C10.2 4.83333 9.79167 3.84167 8.975 3.025C8.15833 2.20833 7.16667 1.8 6 1.8C4.83333 1.8 3.84167 2.20833 3.025 3.025C2.20833 3.84167 1.8 4.83333 1.8 6C1.8 7.16667 2.20833 8.15833 3.025 8.975C3.84167 9.79167 4.83333 10.2 6 10.2Z" fill="black"/>
</svg>
