<svg width="15" height="16" viewBox="0 0 15 16" fill="none" xmlns="http://www.w3.org/2000/svg">
<path d="M5.9434 16L5.49865 13.625C5.18868 13.5 4.88881 13.3542 4.59906 13.1875C4.3093 13.0208 4.03639 12.8264 3.78032 12.6042L1.5566 13.375L0 10.6042L1.75876 9.02083C1.73181 8.85417 1.71159 8.6875 1.69811 8.52083C1.68464 8.35417 1.6779 8.18056 1.6779 8C1.6779 7.81944 1.68464 7.64583 1.69811 7.47917C1.71159 7.3125 1.73181 7.14583 1.75876 6.97917L0 5.39583L1.5566 2.625L3.78032 3.39583C4.03639 3.17361 4.3093 2.97917 4.59906 2.8125C4.88881 2.64583 5.18868 2.5 5.49865 2.375L5.9434 0H9.0566L9.50135 2.375C9.81132 2.5 10.1112 2.64583 10.4009 2.8125C10.6907 2.97917 10.9636 3.17361 11.2197 3.39583L13.4434 2.625L15 5.39583L13.2412 6.97917C13.2682 7.14583 13.2884 7.3125 13.3019 7.47917C13.3154 7.64583 13.3221 7.81944 13.3221 8C13.3221 8.18056 13.3154 8.35417 13.3019 8.52083C13.2884 8.6875 13.2682 8.85417 13.2412 9.02083L15 10.6042L13.4434 13.375L11.2197 12.6042C10.9636 12.8264 10.6907 13.0208 10.4009 13.1875C10.1112 13.3542 9.81132 13.5 9.50135 13.625L9.0566 16H5.9434ZM7.13612 14.5H7.86388L8.24798 12.4375C8.76011 12.3403 9.23854 12.1597 9.68329 11.8958C10.128 11.6319 10.5121 11.2986 10.8356 10.8958L12.7763 11.5625L13.1402 10.9375L11.6038 9.54167C11.6846 9.30556 11.7487 9.05903 11.7958 8.80208C11.843 8.54514 11.8666 8.27778 11.8666 8C11.8666 7.72222 11.843 7.45486 11.7958 7.19792C11.7487 6.94097 11.6846 6.69444 11.6038 6.45833L13.1402 5.0625L12.7763 4.4375L10.8356 5.10417C10.5121 4.70139 10.128 4.36806 9.68329 4.10417C9.23854 3.84028 8.76011 3.65972 8.24798 3.5625L7.86388 1.5H7.13612L6.75202 3.5625C6.23989 3.65972 5.76146 3.84028 5.31671 4.10417C4.87197 4.36806 4.48787 4.70139 4.16442 5.10417L2.22372 4.4375L1.85984 5.0625L3.39623 6.45833C3.31536 6.69444 3.25135 6.94097 3.20418 7.19792C3.15701 7.45486 3.13342 7.72222 3.13342 8C3.13342 8.27778 3.15701 8.54514 3.20418 8.80208C3.25135 9.05903 3.31536 9.30556 3.39623 9.54167L1.85984 10.9375L2.22372 11.5625L4.16442 10.8958C4.48787 11.2986 4.87197 11.6319 5.31671 11.8958C5.76146 12.1597 6.23989 12.3403 6.75202 12.4375L7.13612 14.5ZM7.5 11C8.30863 11 8.99596 10.7083 9.56199 10.125C10.128 9.54167 10.4111 8.83333 10.4111 8C10.4111 7.16667 10.128 6.45833 9.56199 5.875C8.99596 5.29167 8.30863 5 7.5 5C6.69137 5 6.00404 5.29167 5.43801 5.875C4.87197 6.45833 4.58895 7.16667 4.58895 8C4.58895 8.83333 4.87197 9.54167 5.43801 10.125C6.00404 10.7083 6.69137 11 7.5 11Z" fill="white"/>
</svg>
