<svg width="16" height="16" viewBox="0 0 16 16" fill="none" xmlns="http://www.w3.org/2000/svg">
<path d="M6.125 16L5.66667 13.625C5.34722 13.5 5.03819 13.3542 4.73958 13.1875C4.44097 13.0208 4.15972 12.8264 3.89583 12.6042L1.60417 13.375L0 10.6042L1.8125 9.02083C1.78472 8.85417 1.76389 8.6875 1.75 8.52083C1.73611 8.35417 1.72917 8.18056 1.72917 8C1.72917 7.81944 1.73611 7.64583 1.75 7.47917C1.76389 7.3125 1.78472 7.14583 1.8125 6.97917L0 5.39583L1.60417 2.625L3.89583 3.39583C4.15972 3.17361 4.44097 2.97917 4.73958 2.8125C5.03819 2.64583 5.34722 2.5 5.66667 2.375L6.125 0H9.33333L9.79167 2.375C10.1111 2.5 10.4201 2.64583 10.7188 2.8125C11.0174 2.97917 11.2986 3.17361 11.5625 3.39583L13.8542 2.625L15.4583 5.39583L13.6458 6.97917C13.6736 7.14583 13.6944 7.3125 13.7083 7.47917C13.7222 7.64583 13.7292 7.81944 13.7292 8C13.7292 8.18056 13.7222 8.35417 13.7083 8.52083C13.6944 8.6875 13.6736 8.85417 13.6458 9.02083L15.4583 10.6042L13.8542 13.375L11.5625 12.6042C11.2986 12.8264 11.0174 13.0208 10.7188 13.1875C10.4201 13.3542 10.1111 13.5 9.79167 13.625L9.33333 16H6.125ZM7.35417 14.5H8.10417L8.5 12.4375C9.02778 12.3403 9.52083 12.1597 9.97917 11.8958C10.4375 11.6319 10.8333 11.2986 11.1667 10.8958L13.1667 11.5625L13.5417 10.9375L11.9583 9.54167C12.0417 9.30556 12.1076 9.05903 12.1562 8.80208C12.2049 8.54514 12.2292 8.27778 12.2292 8C12.2292 7.72222 12.2049 7.45486 12.1562 7.19792C12.1076 6.94097 12.0417 6.69444 11.9583 6.45833L13.5417 5.0625L13.1667 4.4375L11.1667 5.10417C10.8333 4.70139 10.4375 4.36806 9.97917 4.10417C9.52083 3.84028 9.02778 3.65972 8.5 3.5625L8.10417 1.5H7.35417L6.95833 3.5625C6.43056 3.65972 5.9375 3.84028 5.47917 4.10417C5.02083 4.36806 4.625 4.70139 4.29167 5.10417L2.29167 4.4375L1.91667 5.0625L3.5 6.45833C3.41667 6.69444 3.35069 6.94097 3.30208 7.19792C3.25347 7.45486 3.22917 7.72222 3.22917 8C3.22917 8.27778 3.25347 8.54514 3.30208 8.80208C3.35069 9.05903 3.41667 9.30556 3.5 9.54167L1.91667 10.9375L2.29167 11.5625L4.29167 10.8958C4.625 11.2986 5.02083 11.6319 5.47917 11.8958C5.9375 12.1597 6.43056 12.3403 6.95833 12.4375L7.35417 14.5ZM7.72917 11C8.5625 11 9.27083 10.7083 9.85417 10.125C10.4375 9.54167 10.7292 8.83333 10.7292 8C10.7292 7.16667 10.4375 6.45833 9.85417 5.875C9.27083 5.29167 8.5625 5 7.72917 5C6.89583 5 6.1875 5.29167 5.60417 5.875C5.02083 6.45833 4.72917 7.16667 4.72917 8C4.72917 8.83333 5.02083 9.54167 5.60417 10.125C6.1875 10.7083 6.89583 11 7.72917 11Z" fill="black"/>
</svg>
