<svg width="13" height="12" viewBox="0 0 13 12" fill="none" xmlns="http://www.w3.org/2000/svg">
<path d="M4.79375 12C3.48021 12 2.35286 11.58 1.41172 10.74C0.470573 9.9 0 8.85333 0 7.6C0 6.34667 0.470573 5.3 1.41172 4.46C2.35286 3.62 3.48021 3.2 4.79375 3.2H9.9125L7.8 1.12L8.9375 0L13 4L8.9375 8L7.8 6.88L9.9125 4.8H4.79375C3.94062 4.8 3.19922 5.06667 2.56953 5.6C1.93984 6.13333 1.625 6.8 1.625 7.6C1.625 8.4 1.93984 9.06667 2.56953 9.6C3.19922 10.1333 3.94062 10.4 4.79375 10.4H10.5625V12H4.79375Z" fill="white"/>
</svg>
