<svg width="16" height="8" viewBox="0 0 16 8" fill="none" xmlns="http://www.w3.org/2000/svg">
<path d="M5.42708 7.07292C4.69792 6.45486 4.24306 5.68056 4.0625 4.75H0V3.25H4.0625C4.24306 2.31944 4.69792 1.54514 5.42708 0.927083C6.15625 0.309028 7.01389 0 8 0C8.98611 0 9.84375 0.309028 10.5729 0.927083C11.3021 1.54514 11.7569 2.31944 11.9375 3.25H16V4.75H11.9375C11.7569 5.68056 11.3021 6.45486 10.5729 7.07292C9.84375 7.69097 8.98611 8 8 8C7.01389 8 6.15625 7.69097 5.42708 7.07292ZM8 6.5C8.69444 6.5 9.28472 6.25694 9.77083 5.77083C10.2569 5.28472 10.5 4.69444 10.5 4C10.5 3.30556 10.2569 2.71528 9.77083 2.22917C9.28472 1.74306 8.69444 1.5 8 1.5C7.30556 1.5 6.71528 1.74306 6.22917 2.22917C5.74306 2.71528 5.5 3.30556 5.5 4C5.5 4.69444 5.74306 5.28472 6.22917 5.77083C6.71528 6.25694 7.30556 6.5 8 6.5Z" fill="black"/>
</svg>
